<?xml version="1.0" encoding="utf-8"?>
<!DOCTYPE svg PUBLIC "-//W3C//DTD SVG 1.0//EN" "http://www.w3.org/TR/2001/REC-SVG-20010904/DTD/svg10.dtd">
<svg version="1.0" xmlns="http://www.w3.org/2000/svg" width="512px" height="512px" viewBox="0 0 512 512" preserveAspectRatio="xMidYMid meet">
 <g fill="#000000">
  <path d="M138.3 510.5 c-3.5 -1.5 -5 -4.8 -3.8 -8.5 1.5 -4.7 4.7 -5 46 -5 l38.5 0 0 -29.2 0 -29.3 -9.7 0 c-8.7 0 -10.5 -0.3 -16 -2.9 -7.6 -3.5 -14.4 -10.4 -18.1 -18.4 -2.3 -4.9 -2.7 -7 -2.7 -15.2 0 -8.4 0.3 -10.1 2.8 -14.8 1.5 -3 2.7 -5.7 2.7 -6.1 0 -0.4 -4.4 -1.7 -9.7 -3 -14.5 -3.5 -42.8 -13 -59.3 -20.1 -17 -7.2 -38.2 -18.2 -41 -21.3 -2.3 -2.4 -2.7 -8.4 -0.8 -10.9 0.7 -0.9 7.1 -4.6 14.3 -8.2 14.4 -7.1 21.7 -11.7 34.6 -21.2 8.6 -6.4 13 -7.9 15.6 -5.3 0.8 0.8 1.7 0.8 3.1 0 1 -0.6 2.2 -0.7 2.6 -0.4 0.8 0.8 0.8 9.6 0 11.7 -1.2 3.2 -25.8 20.7 -37.4 26.6 l-4.4 2.3 6.7 3.4 c31.1 15.6 78 29.6 117.2 34.9 18 2.4 55.2 2.4 72.4 0 21.1 -2.9 21.8 -3.1 27.2 -8 8.7 -7.8 12.5 -9.1 26.9 -9 6.9 0.1 13.9 0.2 15.5 0.4 3.5 0.3 27.5 -8.6 44 -16.4 l11 -5.3 -5 -2.5 c-16.6 -8.5 -39.8 -26.4 -61.2 -47.1 l-14.4 -14.1 -9.2 2.2 c-25.5 6.1 -43.4 8.2 -70.7 8.2 -27.5 0 -51.3 -2.9 -75.3 -9.3 l-4.9 -1.2 -8.7 8.9 c-8.4 8.4 -9 8.9 -13.8 9.3 -2.9 0.3 -5.9 0 -7.2 -0.7 -2.1 -1 -2.1 -1.3 -0.7 -2.9 1 -1.1 1.2 -2.1 0.6 -3.1 -2.2 -3.4 -1 -6.3 5.5 -13.2 3.6 -3.9 6.5 -7.3 6.5 -7.7 0 -0.3 -5.1 -2.6 -11.3 -5 -14.4 -5.6 -36.8 -16.6 -40.1 -19.6 -1.9 -1.8 -2.6 -3.4 -2.6 -6.3 0 -4.9 1.9 -6.7 13.6 -12.5 19.2 -9.6 37.1 -23.4 56.5 -43.3 13.7 -14.1 17.3 -18.4 16.3 -19.3 -0.5 -0.4 -4.3 -2 -8.4 -3.6 -10.2 -3.8 -32.3 -15 -34.5 -17.5 -2.4 -2.7 -2.4 -8.3 -0.1 -10.9 1.1 -1.2 4.9 -3.7 8.5 -5.7 3.6 -2 9.4 -5.6 12.9 -8.1 l6.3 -4.5 -3.4 -3.7 c-13.1 -14.5 -11.5 -38.1 3.5 -51.6 6.6 -5.9 14.3 -8.8 23.8 -8.9 8.8 -0.1 14 1.3 20.1 5.4 3.4 2.3 4.7 2.6 5.6 1.7 1.7 -1.8 11.3 -17.9 17.7 -29.7 6.5 -12.2 8.3 -14 13.8 -14 4.9 0 7.5 2.4 11.8 11 4.9 9.8 16.8 29.4 24.8 40.9 4 5.7 7.2 11.2 7.2 12.1 0 0.9 -0.6 2.5 -1.4 3.6 -1.3 1.6 -1.3 2.2 0 4.2 l1.4 2.2 -6.9 0 c-6.3 0 -7.1 -0.2 -9.3 -2.8 -3.9 -4.7 -15.4 -22.1 -21.7 -33.1 l-6 -10.4 -1.8 3.2 c-1 1.7 -5.1 8.5 -9.1 14.9 -7 11.3 -7.2 11.8 -6.5 16.2 0.5 2.5 0.7 8.7 0.7 13.7 -0.2 8 -0.6 10.1 -3.2 15.8 -3.7 7.8 -10.6 14.9 -18.2 18.4 -4.7 2.2 -7.2 2.6 -17 2.9 l-11.5 0.4 -6 4.5 c-3.3 2.5 -6.6 4.8 -7.2 5 -2.5 1 -1.2 2 7.1 5.6 28 12.2 60 18.1 84.3 15.8 13.4 -1.3 30.5 -4.9 43.5 -9.1 9.7 -3.2 25.8 -10 25.8 -10.9 0 -0.3 -1.2 -1.3 -2.8 -2.2 -4.9 -2.8 -17.5 -13.5 -24.4 -20.7 -6.7 -6.9 -6.8 -7.1 -6.8 -12.4 0 -6.2 1.3 -8.9 3.1 -7.1 0.8 0.8 2.8 1 5.6 0.6 4.4 -0.6 4.5 -0.5 11.1 5.9 12 11.6 24.1 20.7 34.7 26.1 6.6 3.3 8.9 6 8.9 10.4 0 2.8 -0.7 4.2 -3.1 6.2 -3.8 3.2 -23 12.8 -33.3 16.6 -4.1 1.6 -7.9 3.2 -8.4 3.6 -1 0.9 2.6 5.2 16.3 19.3 19.4 19.9 37.3 33.7 56.5 43.3 11.7 5.8 13.6 7.6 13.6 12.5 0 2.9 -0.7 4.5 -2.6 6.3 -3.2 3 -25.6 13.9 -39.9 19.5 -6 2.4 -11.2 4.4 -11.4 4.6 -1.5 1.2 22.7 24.3 37.4 35.7 11.8 9.1 25.4 17.6 39 24.4 7.2 3.5 13.6 7.1 14.3 8 1.9 2.5 1.5 8.6 -0.7 11 -4.2 4.5 -32.5 18.2 -55.6 27 -6.6 2.5 -12.2 4.7 -12.4 4.9 -0.2 0.1 0.6 1.6 1.7 3.1 1.1 1.6 3 5.8 4.2 9.3 5.8 17.1 -2.8 36.3 -20 44.4 -5.7 2.7 -7.6 3.1 -15 3.1 -7.4 0 -9.3 -0.4 -15 -3.1 -13.1 -6.2 -20.7 -17.7 -21.7 -32.5 -0.6 -7.5 -0.7 -8 -2.7 -7.5 -1.2 0.2 -4.9 0.8 -8.3 1.2 l-6.3 0.7 0 31.3 c0 30.1 -0.1 31.5 -2 33.4 -1.1 1.1 -2.7 2 -3.5 2 -0.8 0 -1.5 0.9 -1.5 2 0 1.5 -0.7 2 -2.7 2 -3.8 -0.1 -6.2 -2.1 -7.3 -6.1 -0.6 -1.9 -1 -16 -1 -31.4 l0 -28 -19.3 0.2 -19.2 0.1 -0.3 50.6 -0.2 50.6 19.5 0 19.5 0 0 -7.8 c0 -12.5 2.2 -17.1 8.3 -17.2 2 0 2.7 0.5 2.7 2 0 1.1 0.7 2 1.5 2 0.8 0 2.4 0.9 3.5 2 1.7 1.7 2 3.3 2 12 l0 10 38.5 0 c30.9 0 39.2 0.3 41.9 1.4 6.1 2.5 6.1 9.7 0.1 12.2 -5.1 2.1 -230.3 2 -235.2 -0.1z m74.2 -89.9 l3.5 -1.5 0 -14 0 -14 -3.2 -0.6 c-13.6 -2.3 -15.3 -2.3 -17.2 -0.7 -1 1 -2.7 3.4 -3.7 5.4 -5.2 10.2 1.2 22 14.1 25.9 1.4 0.4 2.6 0.8 2.8 0.8 0.1 0.1 1.8 -0.6 3.7 -1.3z m140.3 -11.2 c7.1 -2.9 13.1 -11 13.2 -17.7 0 -6.6 -7.5 -15.6 -15 -17.8 -3.1 -1 -4.9 -1 -8 0 -7.4 2.2 -15 11.1 -15 17.6 0 6.5 5.6 14.4 12.5 17.6 4.9 2.3 7.5 2.4 12.3 0.3z m-112.3 -155.3 c-7.5 -3.6 -13.6 -9.8 -17.2 -17.6 -2.6 -5.6 -2.8 -6.9 -2.8 -18.5 0 -11.6 0.2 -12.9 2.8 -18.6 3.6 -7.7 10.4 -14.5 18.2 -18.1 5.6 -2.6 6.9 -2.8 18.5 -2.8 11.6 0 12.9 0.2 18.6 2.8 7.7 3.6 14.5 10.4 18.1 18.2 2.6 5.6 2.8 6.9 2.8 18.5 0 11.6 -0.2 12.9 -2.8 18.6 -3.1 6.7 -9.9 13.9 -16.2 17.3 l-4 2.2 7 -0.6 c22.8 -2.1 58.5 -11.9 83.6 -23 5.7 -2.5 10.4 -4.7 10.6 -4.8 0.1 -0.2 -3.9 -3 -9 -6.3 -5 -3.2 -13.7 -9.5 -19.2 -13.8 -10.7 -8.5 -32.9 -30.3 -40.9 -40.2 l-4.8 -6 -9.2 1.7 c-23.1 4.5 -54.1 4.5 -77.2 0.1 l-9 -1.8 -9 10.4 c-16.1 18.8 -33.8 34.5 -53.6 47.8 -6.2 4.2 -11.4 7.8 -11.6 7.9 -0.6 0.5 21.9 9.9 32.4 13.5 25 8.6 57.4 15.4 75.4 15.9 l4.5 0.1 -6 -2.9z m25.8 -18.7 c7 -3.6 12.7 -11.3 12.7 -17.4 0 -6 -5.4 -13.6 -12.2 -17.1 -6.5 -3.3 -11.9 -2.4 -18.2 3.2 -7.2 6.3 -9.3 13.8 -5.7 20.7 5.2 10 15.4 14.6 23.4 10.6z m-57.3 -145.8 c5.1 -3.3 9.5 -10.8 9.3 -15.7 -0.4 -10.3 -12.1 -20.3 -21.6 -18.5 -9.3 1.7 -17.9 13.4 -15.8 21.4 2.6 9.5 11.6 16.7 19.9 15.9 2.3 -0.3 6 -1.6 8.2 -3.1z"/>
  <path d="M182 354.6 c-12 -4 -21 -13.2 -24.9 -25.5 -1.4 -4.4 -1.4 -21.8 0 -26.2 4 -12.5 13.1 -21.7 25.4 -25.6 5.2 -1.6 21.8 -1.6 27 0 12.3 3.9 21.4 13.1 25.4 25.6 1.5 4.6 1.4 21.7 -0.2 26.6 -3.9 12.3 -13.1 21.4 -25.6 25.4 -4.4 1.4 -22.6 1.2 -27.1 -0.3z m20.3 -21.2 c7 -3.6 12.7 -11.3 12.7 -17.4 0 -8.5 -10.5 -19 -19 -19 -8.5 0 -19 10.5 -19 19 0 3.9 3 9.7 6.7 13.1 6.2 5.9 12.6 7.3 18.6 4.3z"/>
 </g>
 <g fill="#45875f">
  <path d="M237.8 374.4 c-1 -0.3 -1.8 -1.2 -1.8 -2 0 -1.2 3.1 -1.4 18.4 -1.4 19.4 0 32.7 -1 49.1 -3.6 9.1 -1.5 10.4 -2 14 -5.3 9.5 -8.7 18.3 -11.6 32.2 -10.8 7.7 0.4 10.1 0.2 14.5 -1.5 7.9 -2.9 37.8 -17.6 37.8 -18.5 -0.1 -0.5 -4.6 -3 -10 -5.6 -18.9 -9.2 -41.6 -25.7 -60.7 -44 l-10.2 -9.9 -10.8 2.1 c-11.6 2.1 -26.8 4.1 -32 4.1 -2.2 0 -3.3 -0.5 -3.3 -1.5 0 -1.5 1.2 -1.8 15.5 -3.5 9.8 -1.2 28.9 -4.9 40 -7.8 l7 -1.9 15.1 14.6 c22.9 22.3 39.3 34.9 61.6 47.7 l10.8 6.1 -12.8 6.1 c-13.2 6.3 -26.5 11.8 -41.4 17 -8.5 3 -8.8 3.1 -13.3 1.5 -3.3 -1.1 -7 -1.4 -12.8 -1.1 -9.7 0.6 -15.4 2.9 -22.6 9.4 -5.4 4.8 -6.3 5.1 -26.6 7.9 -10.8 1.5 -54.3 2.9 -57.7 1.9z"/>
  <path d="M215 372.4 c-39.1 -5.2 -85.8 -19.6 -120.4 -37.1 l-7.8 -3.9 7.3 -3.9 c9.5 -4.9 24.9 -14.9 33.3 -21.5 6.7 -5.3 8.3 -8.1 7.1 -12.1 -0.7 -2 0.6 -3.8 2.8 -3.9 0.4 0 0.7 3.1 0.7 6.9 l0 7 -5.9 4.5 c-3.3 2.5 -6.4 4.6 -7 4.6 -0.6 0 -1.1 0.4 -1.1 0.9 0 1 -16.1 11.6 -23 15.1 l-4.5 2.3 8 3.8 c11.6 5.6 36.3 15.2 49.4 19.3 22.9 7.2 53.8 13.8 71.4 15.2 7.6 0.6 8.7 0.9 8.7 2.5 0 2.3 -3.5 2.4 -19 0.3z"/>
  <path d="M183.1 355.5 c-5.6 -1.6 -11.1 -4.4 -11.1 -5.7 0 -0.4 -0.6 -0.8 -1.3 -0.8 -1.4 0 -7.7 -6 -7.7 -7.3 0 -0.4 -0.9 -1.7 -2 -2.9 -7.5 -8.1 -7.5 -37.5 0 -45.6 1.1 -1.2 2 -2.5 2 -3 0 -1 6.3 -7.2 7.3 -7.2 0.4 0 1.7 -0.9 2.9 -2 4 -3.7 11.5 -5.5 22.8 -5.5 11.3 0 18.8 1.8 22.8 5.5 1.2 1.1 2.5 2 3 2 1 0 7.2 6.3 7.2 7.3 0 0.4 0.9 1.7 2 2.9 7.5 8.1 7.5 37.5 0 45.6 -1.1 1.2 -2 2.5 -2 3 0 1 -6.3 7.2 -7.3 7.2 -0.4 0 -1.7 0.9 -2.9 2 -5.4 5 -24.9 7.5 -35.7 4.5z m23 -3.6 c16.6 -5.2 26.8 -19 26.9 -36 0 -20.8 -16.1 -36.9 -37 -36.9 -10.7 0 -19.6 3.7 -26.6 11.2 -7.2 7.6 -10.4 15.5 -10.4 25.8 0 16.5 10.1 30.3 26 35.6 4.5 1.5 16.7 1.7 21.1 0.3z"/>
  <path d="M144.4 284.9 c-0.3 -0.6 0 -1.8 0.9 -2.6 1.2 -1.2 1.9 -1.3 3.6 -0.3 3.3 1.7 6 0.4 12.9 -6.3 l6.2 -6.1 0 3.5 c0 3 -0.8 4.4 -5 8.3 -4.8 4.5 -5.1 4.6 -11.4 4.6 -3.6 0 -6.8 -0.5 -7.2 -1.1z"/>
  <path d="M241 277 c0 -1.9 0.7 -2 15 -2 14.3 0 15 0.1 15 2 0 1.9 -0.7 2 -15 2 -14.3 0 -15 -0.1 -15 -2z"/>
  <path d="M218 276.5 c-11.1 -1.5 -23.7 -3.8 -32.3 -6.1 -3.4 -0.9 -8.3 -1.9 -10.9 -2.3 -4.7 -0.6 -4.7 -0.6 -3 -2.8 l1.7 -2.2 9.5 2.4 c11.4 3 33 7.1 42 8 9.7 0.9 12 1.5 12 3.1 0 1.7 -5.4 1.7 -19 -0.1z"/>
  <path d="M252 260.3 c-0.8 -0.3 -1.7 -0.9 -2 -1.4 -0.3 -0.4 -1.8 -1.1 -3.3 -1.4 -2.1 -0.6 -2.7 -0.4 -2.7 0.9 0 2 -2.9 2.1 -18.7 0.1 -32.6 -4 -69.4 -15.1 -96.6 -29.2 l-3.9 -1.9 5.9 -3.2 c8 -4.2 22.5 -14.4 31.8 -22.2 4.2 -3.6 9 -7.6 10.6 -8.9 l2.9 -2.4 0 3 c0 3.2 -4.4 8.3 -7.2 8.3 -0.9 0 -1.8 0.9 -2.1 2 -0.3 1.1 -1.3 2.3 -2.4 2.7 -1 0.4 -2.4 1.5 -3.1 2.5 -0.7 1 -1.7 1.8 -2.2 1.8 -0.5 0 -2.1 1.1 -3.6 2.5 -1.5 1.4 -3.1 2.5 -3.5 2.5 -0.4 0 -2 1.1 -3.5 2.5 -1.5 1.4 -3.8 2.8 -5.1 3.1 -1.3 0.4 -2.3 1 -2.3 1.5 0 0.5 -0.5 0.9 -1 0.9 -0.6 0 -2 0.8 -3 1.8 -1.9 1.8 -1.8 1.9 7.8 6.2 25.4 11.3 56.6 19.9 83.3 23 11.7 1.4 15.1 1 10.7 -1 -1.6 -0.7 -2.8 -1.9 -2.8 -2.7 0 -0.7 -0.8 -1.3 -1.8 -1.3 -2.3 0 -6.2 -4 -6.2 -6.3 0 -0.9 -0.6 -1.7 -1.3 -1.7 -2.2 0 -5.9 -8.8 -7 -16.6 -0.8 -5.2 -0.8 -9.6 0 -14.8 1.1 -7.8 4.8 -16.6 7 -16.6 0.7 0 1.3 -0.8 1.3 -1.8 0 -2.3 4 -6.2 6.3 -6.2 0.9 0 1.7 -0.6 1.7 -1.3 0 -2.2 8.8 -5.9 16.6 -7 5.2 -0.8 9.6 -0.8 14.8 0 7.8 1.1 16.6 4.8 16.6 7 0 0.7 0.8 1.3 1.8 1.3 2.3 0 6.2 4 6.2 6.3 0 0.9 0.6 1.7 1.3 1.7 2.2 0 5.9 8.8 7 16.6 0.8 5.2 0.8 9.6 0 14.8 -1.1 7.8 -4.8 16.6 -7 16.6 -0.7 0 -1.3 0.8 -1.3 1.8 0 2.3 -4 6.2 -6.3 6.2 -0.9 0 -1.7 0.6 -1.7 1.3 0 0.7 -1.5 2.1 -3.2 3 -1.8 1 -2.4 1.5 -1.3 1.3 1.1 -0.3 4.9 -0.8 8.5 -1.1 21.6 -2.3 58.9 -13.2 82.8 -24.2 l6.2 -2.9 -9 -5.8 c-4.9 -3.2 -9 -6.1 -9 -6.4 0 -0.4 -1.2 -1.3 -2.7 -1.9 -1.6 -0.7 -5 -3.3 -7.7 -5.8 -2.7 -2.5 -5.2 -4.5 -5.6 -4.5 -1.1 0 -7 -6.6 -7 -7.8 0 -0.7 -0.8 -1.2 -1.8 -1.2 -2.6 0 -12.2 -10.1 -12.2 -12.8 0 -1.4 -0.6 -2.2 -1.8 -2.2 -1.8 0 -9.2 -6.8 -9.2 -8.4 0 -0.4 -1.1 -1.7 -2.5 -2.8 -1.4 -1.1 -2.5 -2.5 -2.5 -3.3 0 -2.3 -2.7 -2.4 -13.6 -0.4 -6 1 -15.9 2.2 -22.1 2.6 -10 0.5 -11.3 0.4 -11.3 -1 0 -1.8 2.3 -2.3 15 -3.2 4.7 -0.3 13.7 -1.6 20 -2.9 l11.5 -2.4 3.5 4.2 c23.7 28 50 50.8 72.8 63.1 l5.3 2.9 -3.8 2 c-21.4 11 -52.7 21.4 -79.3 26.5 -15.1 2.8 -35 4.7 -35.8 3.4 -0.5 -0.7 -2.2 -0.6 -5.7 0.3 -5.3 1.4 -8.1 1.6 -10.5 0.7z m23.5 -8.6 c7.8 -3.6 14.6 -10.4 18.2 -18.1 2.4 -5.3 2.8 -7.3 2.8 -15.6 0 -8.3 -0.4 -10.3 -2.8 -15.5 -3.6 -7.8 -10.4 -14.6 -18.1 -18.2 -5.3 -2.4 -7.3 -2.8 -15.6 -2.8 -8.3 0 -10.3 0.4 -15.5 2.8 -7.8 3.6 -14.6 10.4 -18.2 18.1 -2.4 5.3 -2.8 7.3 -2.8 15.6 0 8.3 0.4 10.3 2.8 15.5 6.6 14.1 19 21.7 34.7 21.2 6.9 -0.2 9.7 -0.8 14.5 -3z"/>
  <path d="M255.1 240 c-4.1 -1 -8.1 -3 -8.1 -4.2 0 -1.1 5.3 -1 8.6 0.2 3.7 1.5 13.4 0.2 13.4 -1.6 0 -0.9 1.1 -1.4 3 -1.4 2.7 0 3 -0.3 3 -3 0 -1.9 0.5 -3 1.4 -3 0.8 0 1.6 -1.7 1.9 -4.5 0.9 -6.1 -0.2 -13.5 -1.9 -13.5 -0.9 0 -1.4 -1.1 -1.4 -3 0 -2.7 -0.3 -3 -3 -3 -1.9 0 -3 -0.5 -3 -1.4 0 -1.8 -9.7 -3.1 -13.4 -1.6 -3.3 1.2 -8.6 1.3 -8.6 0.1 0 -1.8 7.6 -4.4 13 -4.4 12.3 0 22.3 10 22.3 22.3 0 14.1 -13.8 25.3 -27.2 22z"/>
  <path d="M238.9 225.8 c-2.4 -4.6 -0.9 -17.8 2 -17.8 0.4 0 0.8 4.5 0.8 10 0 10.1 -0.6 11.8 -2.8 7.8z"/>
  <path d="M189.1 177.3 c5.6 -7.1 17.4 -19.8 18.3 -19.7 0.6 0.1 5.9 1.1 11.7 2.2 5.9 1.2 14.4 2.4 19 2.7 12.4 0.9 14.9 1.4 14.9 3 0 1.2 -1.4 1.5 -5.7 1.5 -7.4 0 -21.9 -1.7 -30.7 -3.5 -7.9 -1.7 -11.6 -1.2 -11.6 1.5 0 1 -1.1 2.7 -2.5 3.8 -1.4 1.1 -2.5 2.4 -2.5 2.9 0 2.1 -6.7 7.3 -9.4 7.3 -2.6 0 -2.7 -0.2 -1.5 -1.7z"/>
  <path d="M244.8 148.3 c-1 -0.2 -1.8 -1.1 -1.8 -1.9 0 -1.1 2.4 -1.4 13 -1.4 10.4 0 13 0.3 13 1.4 0 0.7 -1 1.6 -2.2 2 -2.6 0.7 -19.4 0.6 -22 -0.1z"/>
  <path d="M227.6 146.4 c-19.2 -3.5 -32.1 -7.5 -50.4 -15.6 l-11.3 -5.1 5.3 -3.5 c2.9 -1.9 7.7 -5.3 10.7 -7.6 l5.4 -4.1 11.1 0 c9.8 0 11.7 -0.3 16.6 -2.6 7.6 -3.6 14.5 -10.6 18.2 -18.5 2.7 -5.7 3.1 -7.7 3.1 -14.8 0 -4.7 -0.7 -9.8 -1.6 -12.2 l-1.5 -4.1 7.5 -11.9 c4.1 -6.5 9.1 -14.9 11.1 -18.6 2 -3.8 3.9 -6.8 4.2 -6.8 0.3 0 3.6 5.4 7.3 12 7.1 12.5 20.4 32.9 24.1 36.8 1.7 1.9 2.9 2.3 6.3 2 3 -0.2 4.4 0.1 5.2 1.3 0.5 0.9 0.7 2 0.4 2.3 -1.1 1 -11.3 0.7 -11.3 -0.4 0 -0.5 -0.9 -1 -2.1 -1 -1.2 0 -2.3 -0.8 -2.6 -2 -0.3 -1.1 -0.9 -2 -1.4 -2 -0.5 0 -0.9 -0.4 -0.9 -0.9 0 -0.6 -1.1 -2.2 -2.5 -3.7 -1.4 -1.5 -2.5 -3.3 -2.5 -4 0 -0.8 -0.5 -1.4 -1 -1.4 -0.6 0 -1.6 -1.2 -2.3 -2.7 -0.6 -1.6 -1.9 -3.6 -2.8 -4.6 -0.9 -0.9 -4.4 -6.6 -7.8 -12.6 l-6.3 -11 -3.5 6.9 c-2 3.8 -4.4 7.8 -5.4 8.9 -1.1 1.1 -1.9 2.5 -1.9 3.1 0 0.5 -0.4 1 -0.9 1 -0.5 0 -1.1 1 -1.5 2.3 -0.3 1.2 -1.4 3.2 -2.6 4.4 -1.8 2 -1.9 2.7 -0.9 6.7 0.6 2.4 0.9 8.9 0.7 14.3 -0.3 8.9 -0.6 10.5 -3.8 16.8 -2.9 5.8 -4 7.1 -6.2 7.3 -2.1 0.3 -2.7 0.9 -3 3 -0.2 1.6 -1.2 3.1 -2.5 3.7 -1.3 0.5 -2.3 1.3 -2.3 1.7 0 0.3 -2.6 1.6 -5.7 2.9 -4.4 1.6 -8.5 2.3 -17.3 2.6 -8.8 0.3 -11.6 0.7 -12.3 1.8 -0.4 0.8 -1.7 1.5 -2.7 1.5 -1.1 0 -2 0.6 -2 1.4 0 0.8 -1.3 2.3 -3 3.3 -3.5 2 -3.7 2.9 -1 3.8 1.1 0.3 2 1.1 2 1.6 0 0.5 0.8 0.9 1.8 0.9 1 0 4.7 1.2 8.3 2.6 14 5.7 40.4 12.4 49 12.4 2.2 0 2.9 0.5 2.9 2 0 2.4 -2.7 2.5 -14.4 0.4z"/>
  <path d="M270 146.1 c0 -1.7 0.6 -2.1 3.3 -2.1 5.1 0 26.4 -4.7 36.7 -8.2 8.6 -2.8 24.9 -9.3 25.8 -10.3 0.6 -0.6 -2.5 -3.5 -3.8 -3.5 -0.6 0 -1.3 -0.7 -1.6 -1.5 -0.4 -0.8 -1.2 -1.5 -2 -1.5 -0.7 0 -1.7 -0.6 -2.1 -1.2 -0.4 -0.7 -1.7 -1.8 -2.8 -2.4 -1.1 -0.6 -2.4 -2 -3 -3.2 -0.5 -1.2 -1.7 -2.2 -2.6 -2.2 -0.9 0 -4.5 -3.1 -8.2 -6.8 -4.8 -5.1 -6.7 -7.8 -7.3 -10.6 -0.6 -3.7 0.9 -11.6 2.4 -11.6 1.5 0 3 3.7 2.1 5.1 -2.1 3.3 -0.8 6.2 5.9 13.1 8 8.3 17.2 15.9 26.5 22.1 l6.8 4.4 -11.3 5.1 c-18.2 8.2 -41.6 14.9 -58.5 16.8 -6 0.6 -6.3 0.5 -6.3 -1.5z"/>
 </g>
 <g fill="#4b9467">
  <path d="M240 373.9 c-45.4 -2.1 -94.3 -14.9 -140.3 -36.6 l-11.7 -5.6 10.7 -6.1 c12 -6.8 17.2 -10.2 28.7 -18.9 l7.8 -6 -0.4 -4.6 c-0.4 -4.6 -0.4 -4.6 5.6 -9.8 3.9 -3.4 6.4 -4.9 7 -4.3 0.6 0.6 2.6 1 4.6 1 3.1 0 4.4 -1 12.6 -9.6 l9.1 -9.7 12.9 3.1 c28.1 6.8 42.4 8.6 69.4 8.6 22.1 0 33 -1 53.8 -5.1 l13.2 -2.5 10.8 10.3 c20.2 19.5 42.5 35.6 63.4 45.7 8.1 3.9 11.8 6.2 11.8 7.4 0 1.2 -5.3 4.3 -18.2 10.7 -10.1 4.9 -21.3 10.1 -24.9 11.5 -6.2 2.2 -7.1 2.3 -14.2 1.3 -11.7 -1.7 -21.5 1.6 -31.2 10.4 -3.6 3.3 -5 3.8 -13.5 5.2 -19.5 3.3 -44.8 4.6 -67 3.6z m-31 -22.4 c10.8 -3.7 20.6 -14.8 23.6 -26.5 3.9 -15.3 -2.2 -31.1 -15.6 -40.2 -17.2 -11.8 -40.3 -7.2 -52.2 10.2 -11.8 17.2 -7.2 40.3 10.2 52.2 9.8 6.7 22.6 8.3 34 4.3z"/>
  <path d="M239.8 259.3 c-3.3 -0.8 -2 -3.3 1.7 -3.3 2.8 0 3.5 0.4 3.5 2 0 2 -1.4 2.3 -5.2 1.3z"/>
  <path d="M264.3 259.3 c-1.9 -0.3 -3.3 -1 -3.3 -1.8 0 -1.7 4 -2.7 7.9 -1.9 2 0.4 3.1 0.2 3.1 -0.5 0 -0.6 1.9 -2 4.3 -3.2 6.6 -3.3 11.9 -8.1 15.7 -14.3 1.9 -3.1 3.8 -5.6 4.3 -5.6 0.4 0 0.7 1.6 0.7 3.5 0 2.8 -0.4 3.5 -2 3.5 -1.6 0 -2 0.7 -2 3 0 2.7 -0.3 3 -3 3 -2.7 0 -3 0.3 -3 3 0 2.7 -0.3 3 -3 3 -2.3 0 -3 0.4 -3 2 0 1.5 0.7 2 2.5 2 3.1 0 3.3 2.5 0.3 3.4 -3.6 0.9 -4.8 0.7 -4.8 -0.9 0 -0.9 -0.9 -1.5 -2.5 -1.5 -1.5 0 -2.5 0.6 -2.5 1.4 0 1.3 -3.3 2.7 -5.5 2.4 -0.5 -0.1 -2.5 -0.3 -4.2 -0.5z"/>
  <path d="M227.8 258.3 c-3.3 -0.8 -2 -3.3 1.7 -3.3 2.8 0 3.5 0.4 3.5 2 0 2 -1.4 2.3 -5.2 1.3z"/>
  <path d="M252 257 c0 -2.1 1 -2.4 4.8 -1.4 3.6 1 2.7 3.4 -1.3 3.4 -2.8 0 -3.5 -0.4 -3.5 -2z"/>
  <path d="M210 256 c-1.9 -0.4 -6.1 -1.3 -9.2 -2 -3.8 -0.7 -5.8 -1.6 -5.8 -2.6 0 -1.8 2.4 -1.8 13.2 0.3 7.2 1.4 8.8 2 8.8 3.5 0 1.9 -1.3 2.1 -7 0.8z"/>
  <path d="M295 255.2 c0 -1.4 1.9 -2.1 10.4 -3.9 6.1 -1.2 16.3 -4.5 24.7 -7.8 15.5 -6.2 33.9 -15.1 33.8 -16.3 0 -0.4 -3.1 -2.2 -6.9 -4 -9.2 -4.4 -22.3 -13.1 -34.5 -22.9 -12.2 -9.8 -36.7 -34.8 -36.3 -37 0.2 -1.1 3 -2.1 9.8 -3.5 l9.5 -1.9 2.3 2.8 c23.6 28.2 50.6 51.9 73.1 63.9 l5.4 2.9 -9.4 4.4 c-20.9 9.7 -46.9 18.3 -70.3 23.1 -11.9 2.4 -11.6 2.4 -11.6 0.2z"/>
  <path d="M239 253 c0 -1.6 -0.7 -2 -3 -2 -2.7 0 -3 -0.3 -3 -3 0 -2.7 -0.3 -3 -3 -3 -2.7 0 -3 -0.3 -3 -3 0 -2.3 -0.4 -3 -2 -3 -1.6 0 -2 -0.7 -2 -3.5 0 -4.4 1 -4.4 3.4 -0.2 3.6 6.1 8.4 11.2 14 14.7 3.1 1.9 5.6 3.8 5.6 4.3 0 0.4 -1.6 0.7 -3.5 0.7 -2.8 0 -3.5 -0.4 -3.5 -2z"/>
  <path d="M184.8 250.3 c-3.3 -0.8 -2 -3.3 1.7 -3.3 2.8 0 3.5 0.4 3.5 2 0 2 -1.4 2.3 -5.2 1.3z"/>
  <path d="M166.6 244.7 c-9.1 -3.3 -12.1 -5.7 -7 -5.7 3.5 0 13.4 3.1 13.4 4.2 0 0.4 1.4 0.8 3 0.8 2.3 0 3 0.4 3 2 0 2.7 -1.7 2.5 -12.4 -1.3z"/>
  <path d="M150.1 238.7 c-6.6 -2.7 -7.7 -4.7 -2.7 -4.7 2 0 3.6 0.5 3.6 1 0 0.6 1.1 1 2.5 1 2 0 2.5 0.5 2.5 2.5 0 1.4 -0.1 2.5 -0.2 2.5 -0.2 -0.1 -2.7 -1.1 -5.7 -2.3z"/>
  <path d="M136.3 232.5 c-4.3 -1.8 -4.2 -3.5 0.2 -3.5 3.1 0 3.5 0.3 3.5 2.5 0 1.4 -0.1 2.5 -0.2 2.5 -0.2 -0.1 -1.8 -0.7 -3.5 -1.5z"/>
  <path d="M128.1 228.6 l-2.4 -1.3 2.2 -1.3 c2.7 -1.4 3.4 -0.9 2.9 1.8 -0.3 1.9 -0.5 1.9 -2.7 0.8z"/>
  <path d="M219 222.5 c0 -4 2.4 -4.9 3.4 -1.2 1 3.7 0.7 4.7 -1.4 4.7 -1.6 0 -2 -0.7 -2 -3.5z"/>
  <path d="M297 224.8 c0 -3 1.3 -5.8 2.6 -5.8 0.9 0 1.4 1.2 1.4 3.5 0 2.8 -0.4 3.5 -2 3.5 -1.1 0 -2 -0.6 -2 -1.2z"/>
  <path d="M133 224.3 c0 -0.8 8.2 -6.3 9.4 -6.3 0.3 0 0.6 1.1 0.6 2.5 0 1.6 -0.6 2.5 -1.5 2.5 -0.8 0 -1.5 0.5 -1.5 1 0 0.6 -1.6 1 -3.5 1 -1.9 0 -3.5 -0.3 -3.5 -0.7z"/>
  <path d="M145 216.6 c0 -0.3 4.2 -3.6 9.3 -7.5 5 -3.9 10.7 -8.3 12.5 -9.7 l3.2 -2.7 0 3.2 c0 2.8 -0.3 3.1 -3 3.1 -2.5 0 -3 0.4 -3 2.5 0 2 -0.5 2.5 -2.5 2.5 -1.8 0 -2.5 0.5 -2.5 2 0 1.6 -0.7 2 -3.5 2 -3.1 0 -3.5 0.3 -3.5 2.5 0 2.2 -0.4 2.5 -3.5 2.5 -1.9 0 -3.5 -0.2 -3.5 -0.4z"/>
  <path d="M219 213.5 c0 -2.8 0.4 -3.5 2 -3.5 2.1 0 2.4 1 1.4 4.8 -1 3.6 -3.4 2.7 -3.4 -1.3z"/>
  <path d="M297.6 214.8 c-1 -3.8 -0.7 -4.8 1.4 -4.8 1.6 0 2 0.7 2 3.5 0 4 -2.4 4.9 -3.4 1.3z"/>
  <path d="M223 200.5 c0 -2.8 0.4 -3.5 2 -3.5 1.6 0 2 -0.7 2 -3 0 -2.7 0.3 -3 3 -3 2.7 0 3 -0.3 3 -3 0 -2.7 0.3 -3 3 -3 2.3 0 3 -0.4 3 -2 0 -1.6 0.7 -2 3.5 -2 4.4 0 4.4 1 0.3 3.4 -6.2 3.6 -11.3 8.4 -14.8 14 -1.9 3.1 -3.8 5.6 -4.2 5.6 -0.5 0 -0.8 -1.6 -0.8 -3.5z"/>
  <path d="M292 198.4 c-3.5 -5.6 -8.6 -10.4 -14.7 -14 -4.2 -2.4 -4.2 -3.4 0.2 -3.4 2.8 0 3.5 0.4 3.5 2 0 1.6 0.7 2 3 2 2.7 0 3 0.3 3 3 0 2.7 0.3 3 3 3 2.7 0 3 0.3 3 3 0 2.3 0.4 3 2 3 1.6 0 2 0.7 2 3.5 0 1.9 -0.3 3.5 -0.7 3.5 -0.5 0 -2.4 -2.5 -4.3 -5.6z"/>
  <path d="M181 185.5 l9.5 -9.6 0.3 3.2 c0.3 2.8 -0.5 4.1 -5.9 9.5 -5.4 5.4 -6.9 6.4 -9.9 6.4 l-3.5 0 9.5 -9.5z"/>
  <path d="M252 179 c0 -1.6 0.7 -2 3.5 -2 4 0 4.9 2.4 1.3 3.4 -3.8 1 -4.8 0.7 -4.8 -1.4z"/>
  <path d="M262.8 180.3 c-3.3 -0.8 -2 -3.3 1.7 -3.3 2.8 0 3.5 0.4 3.5 2 0 2 -1.4 2.3 -5.2 1.3z"/>
  <path d="M196.9 169.3 c1.1 -1.6 3.6 -4.6 5.5 -6.8 l3.5 -4 0.1 3.8 c0 3.3 -0.3 3.7 -2.5 3.7 -2.1 0 -2.5 0.5 -2.5 3 0 2.7 -0.3 3 -3.1 3 l-3 0 2 -2.7z"/>
  <path d="M237 165 c0 -2.1 1 -2.4 4.8 -1.4 3.6 1 2.7 3.4 -1.3 3.4 -2.8 0 -3.5 -0.4 -3.5 -2z"/>
  <path d="M268 165.6 c0 -1.3 2.8 -2.6 5.8 -2.6 0.6 0 1.2 0.9 1.2 2 0 1.6 -0.7 2 -3.5 2 -2.3 0 -3.5 -0.5 -3.5 -1.4z"/>
  <path d="M211 161 c0 -2.1 1 -2.4 4.8 -1.4 3.6 1 2.7 3.4 -1.3 3.4 -2.8 0 -3.5 -0.4 -3.5 -2z"/>
  <path d="M237.8 147.3 c-3.3 -0.8 -2 -3.3 1.7 -3.3 2.8 0 3.5 0.4 3.5 2 0 2 -1.4 2.3 -5.2 1.3z"/>
  <path d="M269 146 c0 -1.6 0.7 -2 3.5 -2 4 0 4.9 2.4 1.3 3.4 -3.8 1 -4.8 0.7 -4.8 -1.4z"/>
  <path d="M223.8 145.3 c-3.3 -0.8 -2 -3.3 1.7 -3.3 2.8 0 3.5 0.4 3.5 2 0 2 -1.4 2.3 -5.2 1.3z"/>
  <path d="M283 144 c0 -1.6 0.7 -2 3.5 -2 4 0 4.9 2.4 1.3 3.4 -3.8 1 -4.8 0.7 -4.8 -1.4z"/>
  <path d="M209.8 142.3 c-3.6 -0.9 -5.8 -2.1 -5.8 -2.9 0 -1.7 3.2 -1.8 9.9 -0.2 3.8 0.9 5.1 1.6 5.1 3 0 2.1 -1.4 2.2 -9.2 0.1z"/>
  <path d="M297 141.1 c0 -1.9 3.4 -3.1 8.6 -3.1 4.1 0 2.7 2.7 -2 3.9 -6 1.5 -6.6 1.4 -6.6 -0.8z"/>
  <path d="M192.8 136.9 c-2.9 -1.6 -2.1 -2.9 1.7 -2.9 2.8 0 3.5 0.4 3.5 2 0 2.2 -2.4 2.6 -5.2 0.9z"/>
  <path d="M319 134.5 c0 -2.2 0.4 -2.5 3.6 -2.5 4.4 0 4.2 1.8 -0.4 3.7 -3.1 1.3 -3.2 1.2 -3.2 -1.2z"/>
  <path d="M178.3 131 c-5.1 -2.3 -5.5 -4 -1 -4 4.2 0 6 1.2 5.5 3.8 l-0.3 2.1 -4.2 -1.9z"/>
  <path d="M331 129.6 c0 -2.6 1.6 -3.6 6.1 -3.6 1.9 0 2.9 -0.5 2.9 -1.5 0 -1.8 1.1 -1.9 3.4 -0.2 1.6 1.2 1.4 1.4 -2.1 3.1 -2.1 1 -5.3 2.5 -7 3.2 -3.2 1.4 -3.3 1.4 -3.3 -1z"/>
  <path d="M168 125.2 c0 -0.8 5.2 -4.2 6.4 -4.2 0.3 0 0.6 1.1 0.6 2.5 0 2.2 -0.4 2.5 -3.5 2.5 -1.9 0 -3.5 -0.4 -3.5 -0.8z"/>
  <path d="M332 121.5 c0 -0.8 -0.9 -1.5 -2 -1.5 -1.1 0 -2 -0.7 -2 -1.5 0 -0.8 -0.9 -1.5 -2 -1.5 -1.6 0 -2 -0.7 -2 -3 0 -2.8 -0.3 -3 -3.5 -3 -3.3 0 -3.5 -0.2 -3.5 -3.1 l0 -3.2 3.3 2.7 c1.7 1.5 6.7 5.2 10.9 8.4 4.2 3.1 7.7 6 7.7 6.5 0.1 0.4 -1.5 0.7 -3.4 0.7 -2.4 0 -3.5 -0.5 -3.5 -1.5z"/>
  <path d="M178.5 118 c0.3 -0.5 1.9 -1.9 3.5 -3 l3 -2.1 0 3 c0 2.9 -0.3 3.1 -3.6 3.1 -2 0 -3.3 -0.4 -2.9 -1z"/>
  <path d="M200 113.6 c0 -1.3 2.8 -2.6 5.8 -2.6 0.6 0 1.2 0.9 1.2 2 0 1.6 -0.7 2 -3.5 2 -2.3 0 -3.5 -0.5 -3.5 -1.4z"/>
  <path d="M186 113.1 c0 -1.7 2.6 -3 4.8 -2.4 3.6 0.9 2.7 3.3 -1.3 3.3 -1.9 0 -3.5 -0.4 -3.5 -0.9z"/>
  <path d="M217 108.3 c0 -0.5 1.6 -1.8 3.5 -3.1 l3.5 -2.2 0 3 c0 2.8 -0.3 3 -3.5 3 -1.9 0 -3.5 -0.3 -3.5 -0.7z"/>
  <path d="M302.5 92.5 c-0.8 -5.6 0.2 -10.5 2.1 -10.5 2 0 2.7 2.2 1.5 5.2 -0.7 2 -0.6 3.5 0.9 6.2 l1.8 3.6 -2.8 0 c-2.5 0 -2.8 -0.4 -3.5 -4.5z"/>
  <path d="M286.3 75.3 c-0.7 -0.2 -1.3 -1.1 -1.3 -1.9 0 -0.8 -0.7 -1.4 -1.5 -1.4 -0.8 0 -1.5 -0.7 -1.5 -1.5 0 -0.8 -0.4 -1.5 -1 -1.5 -0.5 0 -1 -1.6 -1 -3.5 0 -3.1 -0.3 -3.5 -2.5 -3.5 -2.1 0 -2.5 -0.5 -2.5 -3 0 -2.3 -0.4 -3 -2 -3 -1.1 0 -2 -0.7 -2 -1.5 0 -0.8 -0.4 -1.5 -1 -1.5 -0.5 0 -1 -1.6 -1 -3.5 0 -1.9 0.3 -3.5 0.8 -3.5 0.4 0 2 2.1 3.7 4.8 8 12.8 14 20.3 17.2 21.4 4.3 1.6 4.3 3.8 0.1 3.7 -1.8 0 -3.9 -0.3 -4.5 -0.6z"/>
  <path d="M239 50.4 c0 -1.2 3.4 -6.4 4.2 -6.4 0.4 0 0.8 1.6 0.8 3.5 0 3.1 -0.3 3.5 -2.5 3.5 -1.4 0 -2.5 -0.3 -2.5 -0.6z"/>
  <path d="M264 41.5 c0 -2.8 -0.4 -3.5 -2 -3.5 -1.6 0 -2 -0.7 -2 -3.5 0 -3.1 -0.3 -3.5 -2.5 -3.5 -1.4 0 -2.5 0.5 -2.5 1 0 0.6 -0.9 1 -2 1 -1.6 0 -2 0.7 -2 3.5 0 3.1 -0.3 3.5 -2.5 3.5 -1.4 0 -2.5 -0.2 -2.5 -0.5 0 -0.3 1.9 -3.9 4.2 -8 2.5 -4.4 4.8 -7.5 5.8 -7.5 0.9 0 3.8 3.9 7.3 10 3.1 5.5 5.7 10.2 5.7 10.5 0 0.3 -1.1 0.5 -2.5 0.5 -2.2 0 -2.5 -0.4 -2.5 -3.5z"/>
 </g>
 <g fill="#509e6e">
  <path d="M239 259.4 c-1.9 -0.2 -8 -0.9 -13.5 -1.5 -27 -2.9 -59.2 -12 -87.4 -24.7 l-12.3 -5.6 3.8 -2 c7.8 -4.3 26.2 -17.1 34.4 -23.9 10.3 -8.5 27.5 -25.9 36.1 -36.3 5.5 -6.6 6.6 -7.5 8.8 -7 21.4 4.6 25.7 5.1 47.6 5 12.1 0 24.2 -0.5 26.9 -1.1 l4.9 -1.1 13.6 14 c20.5 21.2 41.3 37.1 60.3 46.2 5.7 2.6 8.8 4.7 8.8 5.7 0 2.1 -19.2 12 -37.6 19.3 -22.4 8.9 -41.7 12.4 -72.4 13 -10.2 0.3 -20.1 0.2 -22 0z m34 -5.9 c10.8 -3.7 20.6 -14.8 23.6 -26.5 3.9 -15.3 -2.2 -31.1 -15.6 -40.2 -17.2 -11.8 -40.3 -7.2 -52.2 10.2 -11.8 17.2 -7.2 40.3 10.2 52.2 9.8 6.7 22.6 8.3 34 4.3z"/>
  <path d="M238.8 147.3 c-3.3 -0.8 -2 -3.3 1.7 -3.3 2.8 0 3.5 0.4 3.5 2 0 2 -1.4 2.3 -5.2 1.3z"/>
  <path d="M268 146 c0 -1.6 0.7 -2 3.5 -2 4 0 4.9 2.4 1.3 3.4 -3.8 1 -4.8 0.7 -4.8 -1.4z"/>
  <path d="M288 143.2 c0 -1.2 1.6 -2.3 5.3 -3.5 2.8 -1 10.8 -4.6 17.6 -7.9 l12.3 -6 -6.6 -3.9 c-22.3 -12.9 -45.8 -37 -67.5 -69.1 -2.4 -3.6 -3.8 -4.8 -5.6 -4.8 -1.4 0 -2.5 -0.3 -2.5 -0.7 0 -0.5 2 -3.8 4.3 -7.4 2.4 -3.6 5.6 -9.2 7.3 -12.3 1.6 -3.1 3.1 -5.6 3.4 -5.6 0.3 0 2.9 4.4 5.9 9.8 7.5 13.5 24 38.1 26.8 39.9 1.5 1 3.5 1.4 5.8 1 3.3 -0.5 3.8 -0.2 8 5 3.5 4.3 4.4 6 3.8 7.7 -1.5 4.3 -0.4 7.9 3.4 11.9 7.1 7.3 20.5 18.7 27.9 23.5 l7.4 4.9 -10.2 4.5 c-13.3 5.9 -22.5 9.2 -34.8 12.3 -11.7 3 -12 3 -12 0.7z"/>
  <path d="M189.3 135.5 c-4.3 -1.8 -4.2 -3.5 0.2 -3.5 3.1 0 3.5 0.3 3.5 2.5 0 1.4 -0.1 2.5 -0.2 2.5 -0.2 -0.1 -1.8 -0.7 -3.5 -1.5z"/>
  <path d="M172.5 128.2 c-5.6 -2.7 -5.9 -2.9 -3.8 -4 2.8 -1.6 3.3 -1.5 3.3 0.3 0 1 1.1 1.5 3.5 1.5 3.1 0 3.5 0.3 3.5 2.5 0 1.4 -0.1 2.5 -0.2 2.5 -0.2 0 -3 -1.3 -6.3 -2.8z"/>
  <path d="M180 116.9 c1.9 -1.7 4.7 -3.9 6.3 -5 l2.7 -2 0 3 c0 2.6 -0.4 3.1 -2.5 3.1 -1.8 0 -2.5 0.5 -2.5 2 0 1.7 -0.7 2 -3.7 2 l-3.8 -0.1 3.5 -3z"/>
  <path d="M190 113 c0 -2.1 1 -2.4 4.8 -1.4 3.6 1 2.7 3.4 -1.3 3.4 -2.8 0 -3.5 -0.4 -3.5 -2z"/>
  <path d="M206 112.7 c0 -0.7 2.3 -2 5 -2.9 l5 -1.6 0 2.3 c0 1.5 -0.7 2.5 -2.2 2.9 -3.9 1 -7.8 0.7 -7.8 -0.7z"/>
  <path d="M225.5 100.9 l4 -4 0.3 2.6 c0.6 4.3 -0.4 5.5 -4.5 5.5 l-3.7 0 3.9 -4.1z"/>
  <path d="M232.2 93.3 c0.2 -0.5 1 -2.5 1.8 -4.5 1.7 -4.5 4 -5 4 -0.9 0 4.5 -1 6.1 -3.7 6.1 -1.4 0 -2.3 -0.3 -2.1 -0.7z"/>
  <path d="M236.6 67.8 c-1 -3.8 -0.7 -4.8 1.4 -4.8 1.6 0 2 0.7 2 3.5 0 4 -2.4 4.9 -3.4 1.3z"/>
  <path d="M234 58.4 c0 -1.2 5.5 -9.4 6.3 -9.4 0.4 0 0.7 1.6 0.7 3.5 0 1.9 -0.4 3.5 -1 3.5 -0.5 0 -1 0.7 -1 1.5 0 0.9 -0.9 1.5 -2.5 1.5 -1.4 0 -2.5 -0.3 -2.5 -0.6z"/>
 </g>
 <g fill="#5aa778">
  <path d="M246.3 235.5 l-2.8 -2.4 3.8 -0.1 c3.3 0 3.7 0.3 3.7 2.5 0 3.1 -1.1 3.2 -4.7 0z"/>
  <path d="M238.5 147.4 c-23.7 -3.2 -40.3 -7.8 -61.2 -17.2 l-10.3 -4.5 6.8 -4.5 c3.7 -2.5 8.5 -6 10.7 -7.7 3.5 -2.8 4.4 -3.1 7 -2.3 1.7 0.5 6.4 0.7 10.5 0.4 15.8 -1.2 29.1 -11.7 33.6 -26.5 1.8 -6.1 1.8 -16.6 -0.2 -22.3 l-1.5 -4.6 5.9 -9.2 5.8 -9.1 4.9 7.3 c22.4 34.1 46.2 58.5 70.7 72.6 4.4 2.6 8.1 5.1 8.2 5.7 0.3 2.9 -31.1 17.4 -43.5 20.1 -7.1 1.5 -40.1 2.8 -47.4 1.8z"/>
 </g>
 <g fill="#ab725c">
  <path d="M233.2 443.3 l0.3 -53.8 2.4 -0.3 c3.9 -0.6 9.1 0.8 9.1 2.3 0 1.1 -1.2 1.5 -4 1.5 l-4 0 0 52 c0 51.4 0 52 -2 52 -2 0 -2 -0.5 -1.8 -53.7z"/>
  <path d="M253 443.5 l0 -53.5 7.3 0 c3.9 0 9.6 -0.3 12.5 -0.6 l5.2 -0.7 0 28.4 c0 16.3 0.4 30 1 32.1 0.8 2.6 1.9 4 4 5 3 1.3 3 1.4 3 9.3 0 7.9 0 8 -3 9.3 -3.7 1.7 -5 5.9 -5 16.5 l0 7.7 -12.5 0 -12.5 0 0 -53.5z"/>
  <path d="M191.4 338.1 c-8.8 -2.2 -6.9 -3.8 4.6 -3.8 5.5 0 10 0.4 10 0.8 0 2.3 -9.5 4.2 -14.6 3z"/>
  <path d="M174.9 323.8 c-2.4 -4.6 -0.9 -17.8 2 -17.8 0.4 0 0.8 4.5 0.8 10 0 10.1 -0.6 11.8 -2.8 7.8z"/>
  <path d="M214.3 316 c0 -10.1 0.6 -11.8 2.8 -7.8 2.4 4.6 0.9 17.8 -2 17.8 -0.4 0 -0.8 -4.5 -0.8 -10z"/>
  <path d="M186 296.9 c0 -1.7 4.7 -3.2 10 -3.2 5.3 0 10 1.5 10 3.2 0 0.4 -4.5 0.8 -10 0.8 -5.5 0 -10 -0.4 -10 -0.8z"/>
 </g>
 <g fill="#e64152">
  <path d="M201.6 423.5 c-13.4 -4.7 -19 -18.9 -12.6 -31.5 3.6 -7.1 4.8 -7.5 15.8 -6.1 16 2.1 14.2 -0.4 14.2 19.3 l0 16.9 -3.5 1.5 c-4.3 1.7 -8.8 1.7 -13.9 -0.1z m1.2 -11.7 c2.9 -5.8 3 -12.1 0.3 -18.2 -2.4 -5.5 -4.8 -6 -8.4 -1.6 -3.9 4.5 -5.2 9.5 -3.8 14.1 1.3 4.4 6.7 11.2 8.5 10.6 0.6 -0.1 2.2 -2.4 3.4 -4.9z"/>
  <path d="M337.5 412.1 c-17.2 -8 -16.8 -33.2 0.7 -40.5 7.7 -3.3 18.2 -1.4 24.1 4.2 9 8.5 9 24 0.1 32.4 -6.2 5.8 -17.1 7.5 -24.9 3.9z m5.1 -14.7 c1.4 -4.9 1.4 -5.9 0 -10.8 -0.9 -2.9 -2.4 -6.4 -3.4 -7.6 l-1.8 -2.2 -3.6 4 c-5.2 5.7 -6.4 11 -4 16.5 1.1 2.3 3.2 5.5 4.8 7 l2.8 2.9 1.8 -2.2 c1 -1.2 2.5 -4.7 3.4 -7.6z"/>
  <path d="M195.1 95.8 c-9.8 -1.7 -16.9 -9.9 -17.8 -20.5 -0.4 -5 0 -6.6 2.4 -11.3 4 -7.9 9.3 -11.3 18.1 -11.8 7.8 -0.4 12.4 1.2 17.1 5.9 4.4 4.4 6 7.9 6.7 14.6 0.5 5.1 0.2 6.5 -2.3 11.3 -4.9 9.2 -13.9 13.6 -24.2 11.8z m-2.3 -10.7 c3.2 -5.6 3.8 -11.8 1.8 -17.9 -0.9 -2.7 -2.5 -5.7 -3.5 -6.6 -1.6 -1.5 -1.9 -1.4 -4.4 1.2 -3 3.2 -5.7 9.1 -5.7 12.6 0 3.5 3 9.6 6 12.3 1.4 1.2 2.8 2.3 3.1 2.3 0.3 0 1.5 -1.8 2.7 -3.9z"/>
 </g>
 <g fill="#f54558">
  <path d="M197.5 421.1 c-9.4 -5.8 -13.2 -17.7 -8.6 -27.6 3 -6.5 5.8 -8.5 11 -7.8 4 0.6 4.5 0.9 6.4 5.2 4.1 9 2.3 22.1 -4 29.8 -1.8 2.3 -1.8 2.3 -4.8 0.4z"/>
  <path d="M334.4 409.8 c-8.1 -6.3 -11 -14.6 -8.3 -24.3 1.2 -4.2 9.4 -13.5 12 -13.5 3.4 0 8.9 12.4 8.9 20 0 7.2 -5.5 20 -8.6 20 -0.6 0 -2.4 -1 -4 -2.2z"/>
  <path d="M185.7 90.9 c-11.6 -9.6 -10.2 -28.9 2.7 -35.6 2.8 -1.4 3 -1.4 5.2 1.4 6.4 7.8 7.2 23.2 1.8 32 -1.7 2.6 -3.6 4.9 -4.4 5.1 -0.8 0.1 -3.2 -1.2 -5.3 -2.9z"/>
 </g>
 <g fill="#ba8068">
  <path d="M234 443.5 l0 -53.5 11 0 11 0 0 53.5 0 53.5 -11 0 -11 0 0 -53.5z"/>
  <path d="M198 336 c0 -1.6 0.7 -2 3.5 -2 2.4 0 3.5 -0.5 3.5 -1.5 0 -1 1 -1.5 3 -1.5 2.7 0 3 -0.3 3 -3 0 -2 0.5 -3 1.5 -3 1 0 1.5 -1.1 1.5 -3.5 0 -2.8 0.4 -3.5 2 -3.5 2.5 0 2.5 2.2 0.1 7.5 -2.3 4.9 -6.4 8.9 -11.3 10.9 -5 2.1 -6.8 2 -6.8 -0.4z"/>
  <path d="M214 310.5 c0 -2.4 -0.5 -3.5 -1.5 -3.5 -1 0 -1.5 -1 -1.5 -3 0 -2.7 -0.3 -3 -3 -3 -2 0 -3 -0.5 -3 -1.5 0 -1 -1.1 -1.5 -3.5 -1.5 -2.8 0 -3.5 -0.4 -3.5 -2 0 -2.5 2.2 -2.5 7.5 -0.1 4.9 2.3 8.9 6.4 10.9 11.3 2.1 5 2 6.8 -0.4 6.8 -1.6 0 -2 -0.7 -2 -3.5z"/>
  <path d="M187 296.6 c0 -1.3 2.8 -2.6 5.8 -2.6 0.6 0 1.2 0.9 1.2 2 0 1.6 -0.7 2 -3.5 2 -2.3 0 -3.5 -0.5 -3.5 -1.4z"/>
 </g>
 <g fill="#3be3eb">
  <path d="M251.5 238.7 c-6.9 -3.2 -13.4 -11.4 -13.5 -16.9 0 -3.2 3.5 -2 4.8 1.5 0.6 1.8 2.6 4.8 4.4 6.6 l3.2 3.3 1.8 -2.2 c1 -1.2 2.5 -4.7 3.4 -7.6 1.4 -4.9 1.4 -5.9 0 -10.8 -0.9 -2.9 -2.4 -6.4 -3.4 -7.6 l-1.8 -2.2 -3.2 3.3 c-1.8 1.8 -3.8 4.8 -4.4 6.6 -0.8 2.1 -1.9 3.3 -3 3.3 -2.3 0 -2.3 -2.4 0.1 -7.5 7 -15.6 29.2 -16.9 38.8 -2.3 2.4 3.6 2.8 5.1 2.8 11.8 0 6.7 -0.4 8.2 -2.8 11.8 -4.3 6.5 -9.7 9.6 -17.6 9.9 -4 0.2 -7.8 -0.2 -9.6 -1z"/>
 </g>
 <g fill="#ffbd54">
  <path d="M186.5 336.2 c-4.9 -2.4 -8.9 -6.5 -10.9 -11.4 -2.1 -4.9 -2 -6.8 0.2 -6.8 1.7 0 5.2 6.8 5.2 10.1 0 1.1 1.1 1.8 3.1 2.1 3.7 0.6 5.3 -1.3 7.5 -8.9 1.4 -4.8 1.4 -5.8 0 -10.5 -2.1 -7.3 -4.1 -9.8 -7.7 -9.8 -2.3 0 -2.9 0.4 -2.9 2.2 0 3.9 -3.3 10.8 -5.2 10.8 -2.3 0 -2.3 -2.4 0.1 -7.5 7 -15.4 29.3 -16.8 38.8 -2.3 2.4 3.6 2.8 5.1 2.8 11.8 0 6.7 -0.4 8.2 -2.8 11.8 -4.2 6.5 -9.4 9.4 -17.5 9.9 -5.2 0.3 -7.6 -0.1 -10.7 -1.5z"/>
 </g>
 <g fill="#ffd659">
  <path d="M182.6 333.4 c-4.7 -3.2 -8.6 -11 -8.6 -17.5 0 -6 4.4 -14.6 8.9 -17.6 1.9 -1.3 3.9 -2.3 4.5 -2.3 3.1 0 8.6 12.8 8.6 20 0 7.1 -5.5 20 -8.5 20 -0.6 0 -2.8 -1.2 -4.9 -2.6z"/>
 </g>
 <g fill="#71f6fc">
  <path d="M247.4 235.8 c-11.4 -8.8 -12.5 -23.7 -2.4 -33.5 6.1 -5.9 8 -5.4 12.1 3.5 4.2 8.8 3.4 20 -1.9 28.1 -3 4.7 -3.9 4.9 -7.8 1.9z"/>
 </g>
</svg>